M48
;Layer_Color=9474304
;FILE_FORMAT=2:3
INCH,LZ
;TYPE=PLATED
T1F00S00C0.012
T2F00S00C0.016
T3F00S00C0.035
%
T01
X00474Y00183
Y00301
X00651Y00183
Y00124
X0071
X00875Y00229
X00897Y00314
X00946Y0036
X00951Y00404
X00983Y00432
X01049Y00406
X01097Y00305
X01124Y00183
X01065Y00124
X01242
X01419Y00242
X014Y00277
X01356Y00394
X0158Y00328
X01596Y00301
X01655Y0036
X01714
X01773
X01832
Y00419
X01773
Y00301
X01832Y00124
X01891
X01832Y00065
X01537Y00242
X00415Y00301
X00356
X00415Y00183
X00238
X00179Y00301
Y00419
X00238
X00297
X00085Y00433
X00061Y0036
X0012
Y00124
Y00065
X00061Y00124
X0012Y00478
X00179
X00238
X00356
Y00537
X00415
X00297
X00277Y00588
X0029Y00666
X00344Y00755
X00455Y00723
X00456Y00834
X00415Y01246
Y01305
Y01364
Y01423
X00356
Y01482
Y01541
X00415
Y01659
X00356Y01837
X0012
Y01896
Y01778
X00179Y01719
Y01659
Y016
X0012
Y01541
Y01482
X00179Y01423
X00297
X00356Y01364
Y01305
Y01246
Y01187
X00297Y01246
Y01305
X00268Y01129
X0008Y01093
X00061Y01541
Y016
X00238Y01541
X00297
X00061Y01837
X00115Y00594
X00568Y00625
X00626Y00666
X00601Y00747
X00518Y00868
X0073Y00826
X00769Y00951
X00946
X01005Y00892
X0107Y0091
X01072Y00989
X01053Y01013
X01033Y01031
X01014Y01053
X00909Y01078
X00869Y01089
X00846Y01122
X00823Y01148
X00819Y01189
X00821Y01256
X01018Y01298
X01032Y0132
X01053Y01338
X01073Y01361
X01124Y01364
X01141Y01336
X01051Y0127
X01051Y01204
X01078Y01214
X01152Y01185
X01292Y01254
X0132Y01303
X01378Y01297
X01411Y01322
X01419Y01423
Y01541
X0136
Y01482
X01301
X01282Y01448
X01241Y01427
X01242Y01482
X01204Y0152
X01183Y01541
X01144Y01558
X0115Y01512
X01147Y01623
X01183Y01659
X01242
Y01719
X01301
Y01778
Y01837
X0136
X01478
Y01719
X01537
X01596Y01659
Y01541
Y01482
X01714
Y01541
X01773Y016
X01832
X01773Y01659
X01891Y01837
X01832Y01896
X01478Y01659
X01419
Y01719
X01183
Y01778
X01065Y01719
Y01659
X0104Y01592
X00992Y01519
X00892Y01448
X00855Y01577
X00828Y01659
Y01719
X00887
X01005
X00769
Y01778
X0071Y01659
Y01541
X00769
X00651
X00592
X00533Y01423
Y01364
Y01305
X00592
X00533Y01246
X00474
Y01305
Y01364
Y01659
X00651Y01837
X01301Y01541
X01537
Y01069
X01596
X01478
X01419
X01295Y01016
X01241Y00997
X01224Y01044
X01065Y00774
Y00715
X01005Y00656
Y00596
X00946Y00656
Y00833
X00896Y00859
X0117Y00473
X01714Y00537
X01773
Y00596
Y00656
Y00715
X01714Y00596
X01655
X01537Y00715
Y00833
X01773Y00951
Y0101
Y01069
Y01128
X01714
X01746Y01201
X01891Y00951
X00554Y00517
T02
X01764Y00167
X00147Y00179
X00173Y01842
X01847Y01797
T03
X01906Y00469
X0016Y00541
X0006
Y00641
X0016
Y00741
X0006
Y00841
X0016
Y00941
X0006
X0006Y01177
Y01277
Y01377
Y01477
X00254Y01477
Y01377
Y01277
Y01177
X0147Y00976
X0157
Y00876
Y00776
Y00676
X0147
Y00776
Y00876
X0167Y00876
Y00776
Y00676
Y00976
X01665Y01197
Y01297
Y01397
Y01497
X01905Y00897
Y00797
X01906Y00569
M30
