G04*
G04 #@! TF.GenerationSoftware,Altium Limited,Altium Designer,18.1.1 (9)*
G04*
G04 Layer_Color=16711935*
%FSLAX23Y23*%
%MOIN*%
G70*
G01*
G75*
%ADD73R,0.067X0.067*%
%ADD74C,0.067*%
%ADD75O,0.126X0.067*%
%ADD76O,0.067X0.126*%
%ADD88R,0.110X0.043*%
G04:AMPARAMS|DCode=89|XSize=110mil|YSize=43mil|CornerRadius=13mil|HoleSize=0mil|Usage=FLASHONLY|Rotation=180.000|XOffset=0mil|YOffset=0mil|HoleType=Round|Shape=RoundedRectangle|*
%AMROUNDEDRECTD89*
21,1,0.110,0.018,0,0,180.0*
21,1,0.085,0.043,0,0,180.0*
1,1,0.026,-0.042,0.009*
1,1,0.026,0.042,0.009*
1,1,0.026,0.042,-0.009*
1,1,0.026,-0.042,-0.009*
%
%ADD89ROUNDEDRECTD89*%
D73*
X1906Y569D02*
D03*
X1905Y797D02*
D03*
X160Y541D02*
D03*
X1470Y976D02*
D03*
X1670Y676D02*
D03*
X1665Y1197D02*
D03*
X60Y1177D02*
D03*
X254Y1177D02*
D03*
D74*
X1906Y469D02*
D03*
X1905Y897D02*
D03*
X60Y541D02*
D03*
X160Y641D02*
D03*
X60D02*
D03*
X160Y741D02*
D03*
X60D02*
D03*
X160Y841D02*
D03*
X60D02*
D03*
X160Y941D02*
D03*
X60D02*
D03*
X1570Y676D02*
D03*
Y776D02*
D03*
Y876D02*
D03*
Y976D02*
D03*
X1470Y676D02*
D03*
Y776D02*
D03*
Y876D02*
D03*
X1670Y776D02*
D03*
Y876D02*
D03*
Y976D02*
D03*
X1665Y1297D02*
D03*
Y1397D02*
D03*
Y1497D02*
D03*
X60Y1277D02*
D03*
Y1377D02*
D03*
Y1477D02*
D03*
X254Y1277D02*
D03*
Y1377D02*
D03*
Y1477D02*
D03*
D75*
X482Y1486D02*
D03*
Y482D02*
D03*
X1486Y1486D02*
D03*
Y482D02*
D03*
D76*
X482Y1486D02*
D03*
X1486Y482D02*
D03*
X482D02*
D03*
X1486Y1486D02*
D03*
D88*
X1250Y217D02*
D03*
Y276D02*
D03*
Y335D02*
D03*
Y394D02*
D03*
Y453D02*
D03*
Y512D02*
D03*
Y571D02*
D03*
Y630D02*
D03*
X719D02*
D03*
Y571D02*
D03*
Y512D02*
D03*
Y453D02*
D03*
Y394D02*
D03*
Y335D02*
D03*
Y276D02*
D03*
D89*
Y217D02*
D03*
M02*
