G04*
G04 #@! TF.GenerationSoftware,Altium Limited,Altium Designer,18.1.1 (9)*
G04*
G04 Layer_Color=65535*
%FSLAX23Y23*%
%MOIN*%
G70*
G01*
G75*
%ADD10C,0.008*%
%ADD11C,0.000*%
%ADD12C,0.006*%
%ADD13C,0.010*%
%ADD14C,0.024*%
%ADD15C,0.005*%
%ADD16C,0.006*%
%ADD17C,0.010*%
%ADD18C,0.008*%
%ADD19C,0.008*%
G36*
X-1053Y976D02*
D01*
D02*
G37*
G36*
X315Y596D02*
X240Y521D01*
X390D01*
X315Y596D01*
D02*
G37*
D10*
X1748Y1202D02*
X1740D01*
X1748D01*
X1674Y211D02*
X1665Y216D01*
Y206D01*
X1674Y211D01*
X217Y302D02*
X208Y307D01*
Y297D01*
X217Y302D01*
X306Y1756D02*
X298Y1761D01*
Y1751D01*
X306Y1756D01*
X1763Y1669D02*
X1755Y1674D01*
Y1664D01*
X1763Y1669D01*
X473Y810D02*
X465D01*
X473D01*
X1040Y203D02*
X1032D01*
X1040D01*
X1758Y831D02*
Y862D01*
X1817Y831D02*
Y862D01*
X1856Y419D02*
X1956D01*
X1856D02*
Y619D01*
X1956D01*
Y419D02*
Y619D01*
X1855Y947D02*
X1955D01*
Y747D02*
Y947D01*
X1855Y747D02*
X1955D01*
X1855D02*
Y947D01*
X10Y991D02*
X210D01*
X10Y491D02*
X210D01*
X10D02*
Y991D01*
X210Y491D02*
Y991D01*
X1420Y626D02*
Y1026D01*
X1620D01*
Y626D02*
Y1026D01*
X1420Y626D02*
X1620D01*
X1620Y1026D02*
X1720D01*
Y626D02*
Y1026D01*
X1620Y626D02*
Y1026D01*
Y626D02*
X1720D01*
X1615Y1547D02*
X1715D01*
Y1147D02*
Y1547D01*
X1615Y1147D02*
Y1547D01*
Y1147D02*
X1715D01*
X10Y1527D02*
X110D01*
Y1127D02*
Y1527D01*
X10Y1127D02*
Y1527D01*
Y1127D02*
X110D01*
X204Y1527D02*
X304D01*
Y1127D02*
Y1527D01*
X204Y1127D02*
Y1527D01*
Y1127D02*
X304D01*
X1906Y181D02*
X1914Y173D01*
X1796Y55D02*
X1914Y173D01*
X1787Y63D02*
X1796Y55D01*
X1797Y290D02*
X1805Y282D01*
X1774Y267D02*
X1797Y290D01*
X1679Y172D02*
X1687Y163D01*
X1679Y172D02*
X1702Y195D01*
X173Y57D02*
X181Y65D01*
X55Y175D02*
X173Y57D01*
X55Y175D02*
X63Y183D01*
X282Y165D02*
X290Y174D01*
X267Y196D02*
X290Y174D01*
X163Y283D02*
X172Y292D01*
X195Y269D01*
X55Y1795D02*
X63Y1786D01*
X55Y1795D02*
X173Y1913D01*
X181Y1905D01*
X163Y1686D02*
X172Y1678D01*
X195Y1701D01*
X282Y1804D02*
X290Y1796D01*
X267Y1773D02*
X290Y1796D01*
X1787Y1907D02*
X1796Y1915D01*
X1914Y1797D01*
X1906Y1788D02*
X1914Y1797D01*
X1679Y1798D02*
X1687Y1806D01*
X1679Y1798D02*
X1702Y1775D01*
X1797Y1680D02*
X1805Y1688D01*
X1774Y1703D02*
X1797Y1680D01*
X740Y705D02*
X748Y697D01*
X740Y808D02*
Y815D01*
X748D01*
X850D02*
X858D01*
Y808D02*
Y815D01*
Y697D02*
Y705D01*
X850Y697D02*
X858D01*
X955Y1179D02*
Y1396D01*
X1171Y1179D02*
Y1396D01*
X955D02*
X1171D01*
X955Y1179D02*
X1171D01*
X1221Y310D02*
X1265D01*
X1090Y86D02*
Y101D01*
X1117Y86D02*
Y101D01*
X794Y86D02*
Y101D01*
X767Y86D02*
Y101D01*
X874Y86D02*
Y101D01*
X846Y86D02*
Y101D01*
X1398Y1143D02*
Y1159D01*
X1426Y1143D02*
Y1159D01*
X1524Y1105D02*
X1539D01*
X1524Y1132D02*
X1539D01*
X577Y860D02*
X593D01*
X577Y888D02*
X593D01*
X1632Y506D02*
Y549D01*
X1308Y513D02*
X1351D01*
X944Y1605D02*
Y1649D01*
X550Y1097D02*
X594D01*
X782Y488D02*
X826D01*
X871Y894D02*
Y937D01*
X1482Y377D02*
X1498D01*
X1482Y349D02*
X1498D01*
X1482Y280D02*
X1498D01*
X1482Y308D02*
X1498D01*
X537Y285D02*
X553D01*
X537Y313D02*
X553D01*
X537Y383D02*
X553D01*
X537Y355D02*
X553D01*
X580Y1648D02*
X596D01*
X580Y1675D02*
X596D01*
X580Y1610D02*
X595D01*
X580Y1583D02*
X595D01*
X1346Y1600D02*
X1362D01*
X1346Y1627D02*
X1362D01*
X1346Y1690D02*
X1362D01*
X1346Y1663D02*
X1362D01*
X1120Y1629D02*
Y1645D01*
X1093Y1629D02*
Y1645D01*
X1477Y1221D02*
Y1237D01*
X1505Y1221D02*
Y1237D01*
X1506Y1341D02*
Y1357D01*
X1478Y1341D02*
Y1357D01*
X588Y727D02*
X604D01*
X588Y700D02*
X604D01*
X588Y798D02*
X604D01*
X588Y770D02*
X604D01*
X854Y277D02*
Y293D01*
X827Y277D02*
Y293D01*
X724Y1813D02*
Y1829D01*
X696Y1813D02*
Y1829D01*
X934Y1813D02*
Y1829D01*
X907Y1813D02*
Y1829D01*
X1145Y1813D02*
Y1829D01*
X1117Y1813D02*
Y1829D01*
X1391Y958D02*
X1402D01*
X1396D01*
Y989D01*
X1391Y984D01*
X1407Y853D02*
X1386D01*
X1407Y874D01*
Y879D01*
X1402Y884D01*
X1391D01*
X1386Y879D01*
X236Y629D02*
X247D01*
X241D01*
Y660D01*
X236Y655D01*
X251Y853D02*
X230D01*
Y838D01*
X241Y843D01*
X246D01*
X251Y838D01*
Y827D01*
X246Y822D01*
X236D01*
X230Y827D01*
Y758D02*
X236Y763D01*
X246D01*
X251Y758D01*
Y752D01*
X246Y747D01*
X241D01*
X246D01*
X251Y742D01*
Y737D01*
X246Y731D01*
X236D01*
X230Y737D01*
X1402Y663D02*
Y694D01*
X1386Y678D01*
X1407D01*
X234Y960D02*
X255D01*
Y954D01*
X234Y933D01*
Y928D01*
X1386Y788D02*
X1391Y793D01*
X1402D01*
X1407Y788D01*
Y783D01*
X1402Y777D01*
X1397D01*
X1402D01*
X1407Y772D01*
Y767D01*
X1402Y762D01*
X1391D01*
X1386Y767D01*
X231Y486D02*
Y455D01*
X247D01*
X252Y460D01*
Y481D01*
X247Y486D01*
X231D01*
X262Y455D02*
X273D01*
X268D01*
Y476D01*
X262D01*
X289D02*
Y455D01*
Y465D01*
X294Y471D01*
X299Y476D01*
X304D01*
X336Y455D02*
X325D01*
X320Y460D01*
Y471D01*
X325Y476D01*
X336D01*
X341Y471D01*
Y465D01*
X320D01*
X373Y476D02*
X357D01*
X352Y471D01*
Y460D01*
X357Y455D01*
X373D01*
X388Y481D02*
Y476D01*
X383D01*
X394D01*
X388D01*
Y460D01*
X394Y455D01*
D11*
X560Y1426D02*
X552D01*
X560D01*
X1233Y739D02*
X1230Y747D01*
X1221Y751D01*
X1213Y747D01*
X1209Y739D01*
X745Y686D02*
X737Y690D01*
Y681D01*
X745Y686D01*
D12*
X694Y214D02*
X699Y209D01*
X742D02*
X749Y216D01*
X801Y1867D02*
X795Y1861D01*
X850Y1862D02*
X845Y1867D01*
X1011D02*
X1005Y1861D01*
X1060Y1862D02*
X1055Y1867D01*
X1222D02*
X1215Y1861D01*
X1271Y1862D02*
X1266Y1867D01*
X705Y331D02*
X738D01*
X699Y209D02*
X742D01*
X694Y214D02*
Y320D01*
X749Y216D02*
Y320D01*
X795Y1756D02*
Y1861D01*
X850Y1756D02*
Y1862D01*
X801Y1867D02*
X845D01*
X805Y1745D02*
X839D01*
X1005Y1756D02*
Y1861D01*
X1060Y1756D02*
Y1862D01*
X1011Y1867D02*
X1055D01*
X1016Y1745D02*
X1049D01*
X1215Y1756D02*
Y1861D01*
X1271Y1756D02*
Y1862D01*
X1222Y1867D02*
X1266D01*
X1226Y1745D02*
X1260D01*
D13*
X908Y1423D02*
X901Y1427D01*
Y1419D01*
X908Y1423D01*
D14*
X1006Y1356D02*
X1001Y1366D01*
X991Y1368D01*
X983Y1361D01*
Y1351D01*
X991Y1345D01*
X1001Y1347D01*
X1006Y1356D01*
D15*
X1941Y1153D02*
Y1448D01*
X1795Y1084D02*
X1833D01*
X1795D02*
Y1172D01*
Y1428D02*
Y1517D01*
X1833D01*
X625Y1404D02*
X649D01*
X700Y1274D02*
Y1337D01*
X625Y1207D02*
X649D01*
X574Y1274D02*
Y1337D01*
X441Y1800D02*
X456Y1785D01*
X426D02*
X441Y1800D01*
X1520Y1828D02*
X1535Y1813D01*
X1550Y1828D01*
X446Y185D02*
X461Y170D01*
X431D02*
X446Y185D01*
X1471Y149D02*
X1486Y134D01*
X1501Y149D01*
X1034Y455D02*
X1074D01*
X1034Y557D02*
X1074D01*
X316Y785D02*
X434D01*
X316Y982D02*
X434D01*
X973Y35D02*
X989D01*
X973Y161D02*
X989D01*
X926Y74D02*
Y121D01*
X1036Y74D02*
Y121D01*
D16*
X1065Y366D02*
X1145D01*
X1065Y242D02*
X1145D01*
X540Y1787D02*
Y1819D01*
X562D01*
X652Y1787D02*
Y1819D01*
X630D02*
X652D01*
X1365Y1823D02*
Y1855D01*
X1387D01*
X1477Y1823D02*
Y1855D01*
X1455D02*
X1477D01*
X622Y123D02*
Y155D01*
X600Y123D02*
X622D01*
X510D02*
Y155D01*
Y123D02*
X532D01*
X1394Y89D02*
Y121D01*
X1372Y89D02*
X1394D01*
X1282D02*
Y121D01*
Y89D02*
X1304D01*
X1233Y739D02*
X1267D01*
X1209D02*
X1233D01*
X1175D02*
X1209D01*
X1175Y931D02*
X1267D01*
D17*
X315Y596D02*
X390Y521D01*
X370D02*
X390D01*
X240D02*
X370D01*
X240D02*
X315Y596D01*
Y600D01*
X339Y1184D02*
X334Y1189D01*
X323D01*
X318Y1184D01*
Y1178D01*
X323Y1173D01*
X334D01*
X339Y1168D01*
Y1163D01*
X334Y1157D01*
X323D01*
X318Y1163D01*
X370Y1184D02*
X365Y1189D01*
X355D01*
X349Y1184D01*
Y1163D01*
X355Y1157D01*
X365D01*
X370Y1163D01*
X381Y1189D02*
Y1157D01*
X402D01*
X341Y1293D02*
X336Y1298D01*
X325D01*
X320Y1293D01*
Y1288D01*
X325Y1282D01*
X336D01*
X341Y1277D01*
Y1272D01*
X336Y1267D01*
X325D01*
X320Y1272D01*
X351Y1298D02*
Y1267D01*
X367D01*
X372Y1272D01*
Y1293D01*
X367Y1298D01*
X351D01*
X383Y1267D02*
Y1288D01*
X393Y1298D01*
X404Y1288D01*
Y1267D01*
Y1282D01*
X383D01*
X166Y1491D02*
X160Y1496D01*
X150D01*
X145Y1491D01*
Y1470D01*
X150Y1465D01*
X160D01*
X166Y1470D01*
Y1480D01*
X155D01*
X145Y1394D02*
Y1373D01*
X155Y1362D01*
X166Y1373D01*
Y1394D01*
X137Y1299D02*
X158D01*
X147D01*
Y1268D01*
X168Y1299D02*
X189Y1268D01*
Y1299D02*
X168Y1268D01*
X141Y1154D02*
Y1185D01*
X156D01*
X162Y1180D01*
Y1169D01*
X156Y1164D01*
X141D01*
X151D02*
X162Y1154D01*
X172Y1185D02*
X193Y1154D01*
Y1185D02*
X172Y1154D01*
X1897Y734D02*
Y713D01*
X1907Y703D01*
X1918Y713D01*
Y734D01*
X1832Y981D02*
X1827Y986D01*
X1816D01*
X1811Y981D01*
Y960D01*
X1816Y955D01*
X1827D01*
X1832Y960D01*
Y970D01*
X1822D01*
X1550Y1171D02*
Y1203D01*
X1566D01*
X1571Y1197D01*
Y1187D01*
X1566Y1182D01*
X1550D01*
X1561D02*
X1571Y1171D01*
X1582Y1203D02*
X1603Y1171D01*
Y1203D02*
X1582Y1171D01*
X1546Y1317D02*
X1567D01*
X1557D01*
Y1285D01*
X1578Y1317D02*
X1599Y1285D01*
Y1317D02*
X1578Y1285D01*
X1576Y1411D02*
Y1390D01*
X1586Y1380D01*
X1597Y1390D01*
Y1411D01*
Y1508D02*
X1592Y1513D01*
X1581D01*
X1576Y1508D01*
Y1487D01*
X1581Y1481D01*
X1592D01*
X1597Y1487D01*
Y1497D01*
X1586D01*
X1877Y1584D02*
X1872Y1590D01*
X1862D01*
X1856Y1584D01*
Y1579D01*
X1862Y1574D01*
X1872D01*
X1877Y1569D01*
Y1563D01*
X1872Y1558D01*
X1862D01*
X1856Y1563D01*
X1888Y1590D02*
Y1558D01*
X1898Y1569D01*
X1909Y1558D01*
Y1590D01*
X1919D02*
Y1558D01*
X1935D01*
X1940Y1563D01*
Y1584D01*
X1935Y1590D01*
X1919D01*
X301Y1056D02*
Y1030D01*
X306Y1024D01*
X317D01*
X322Y1030D01*
Y1056D01*
X333Y1051D02*
X338Y1056D01*
X348D01*
X354Y1051D01*
Y1045D01*
X348Y1040D01*
X343D01*
X348D01*
X354Y1035D01*
Y1030D01*
X348Y1024D01*
X338D01*
X333Y1030D01*
X1281Y988D02*
Y962D01*
X1287Y957D01*
X1297D01*
X1302Y962D01*
Y988D01*
X1334Y957D02*
X1313D01*
X1334Y978D01*
Y983D01*
X1329Y988D01*
X1318D01*
X1313Y983D01*
X953Y238D02*
Y207D01*
X968D01*
X974Y212D01*
Y233D01*
X968Y238D01*
X953D01*
X984Y233D02*
X989Y238D01*
X1000D01*
X1005Y233D01*
Y228D01*
X1000Y222D01*
X995D01*
X1000D01*
X1005Y217D01*
Y212D01*
X1000Y207D01*
X989D01*
X984Y212D01*
X1071Y154D02*
Y185D01*
X1087D01*
X1092Y180D01*
Y169D01*
X1087Y164D01*
X1071D01*
X1081D02*
X1092Y154D01*
X1123D02*
X1102D01*
X1123Y175D01*
Y180D01*
X1118Y185D01*
X1108D01*
X1102Y180D01*
X1150Y154D02*
Y185D01*
X1134Y169D01*
X1155D01*
X714Y159D02*
Y191D01*
X729D01*
X735Y186D01*
Y175D01*
X729Y170D01*
X714D01*
X724D02*
X735Y159D01*
X766D02*
X745D01*
X766Y180D01*
Y186D01*
X761Y191D01*
X750D01*
X745Y186D01*
X777D02*
X782Y191D01*
X792D01*
X798Y186D01*
Y180D01*
X792Y175D01*
X787D01*
X792D01*
X798Y170D01*
Y165D01*
X792Y159D01*
X782D01*
X777Y165D01*
X821Y158D02*
Y190D01*
X837D01*
X842Y185D01*
Y174D01*
X837Y169D01*
X821D01*
X831D02*
X842Y158D01*
X873D02*
X852D01*
X873Y179D01*
Y185D01*
X868Y190D01*
X858D01*
X852Y185D01*
X905Y158D02*
X884D01*
X905Y179D01*
Y185D01*
X900Y190D01*
X889D01*
X884Y185D01*
X215Y1570D02*
X225D01*
X220D01*
Y1538D01*
X215D01*
X225D01*
X262D02*
X241D01*
X262Y1559D01*
Y1565D01*
X257Y1570D01*
X246D01*
X241Y1565D01*
X293D02*
X288Y1570D01*
X278D01*
X272Y1565D01*
Y1544D01*
X278Y1538D01*
X288D01*
X293Y1544D01*
X1741Y430D02*
X1736Y435D01*
X1726D01*
X1720Y430D01*
Y409D01*
X1726Y404D01*
X1736D01*
X1741Y409D01*
X1773Y404D02*
X1752D01*
X1773Y425D01*
Y430D01*
X1768Y435D01*
X1757D01*
X1752Y430D01*
X1783D02*
X1789Y435D01*
X1799D01*
X1804Y430D01*
Y409D01*
X1799Y404D01*
X1789D01*
X1783Y409D01*
Y430D01*
X1192Y685D02*
X1187Y690D01*
X1177D01*
X1171Y685D01*
Y664D01*
X1177Y658D01*
X1187D01*
X1192Y664D01*
X1203Y658D02*
X1213D01*
X1208D01*
Y690D01*
X1203Y685D01*
X1250Y658D02*
X1229D01*
X1250Y679D01*
Y685D01*
X1245Y690D01*
X1234D01*
X1229Y685D01*
X1081Y416D02*
Y390D01*
X1086Y385D01*
X1097D01*
X1102Y390D01*
Y416D01*
X1134D02*
X1113D01*
Y401D01*
X1123Y406D01*
X1128D01*
X1134Y401D01*
Y390D01*
X1128Y385D01*
X1118D01*
X1113Y390D01*
X1235Y405D02*
X1230Y410D01*
X1220D01*
X1214Y405D01*
Y384D01*
X1220Y379D01*
X1230D01*
X1235Y384D01*
X1267Y379D02*
X1246D01*
X1267Y400D01*
Y405D01*
X1262Y410D01*
X1251D01*
X1246Y405D01*
X1298Y410D02*
X1288Y405D01*
X1277Y395D01*
Y384D01*
X1283Y379D01*
X1293D01*
X1298Y384D01*
Y389D01*
X1293Y395D01*
X1277D01*
X354Y659D02*
X348Y664D01*
X338D01*
X333Y659D01*
Y638D01*
X338Y633D01*
X348D01*
X354Y638D01*
X364Y633D02*
X375D01*
X369D01*
Y664D01*
X364Y659D01*
X411Y664D02*
X390D01*
Y649D01*
X401Y654D01*
X406D01*
X411Y649D01*
Y638D01*
X406Y633D01*
X396D01*
X390Y638D01*
X1294Y1046D02*
Y1078D01*
X1310D01*
X1315Y1072D01*
Y1062D01*
X1310Y1057D01*
X1294D01*
X1305D02*
X1315Y1046D01*
X1326D02*
X1336D01*
X1331D01*
Y1078D01*
X1326Y1072D01*
X1352D02*
X1357Y1078D01*
X1368D01*
X1373Y1072D01*
Y1052D01*
X1368Y1046D01*
X1357D01*
X1352Y1052D01*
Y1072D01*
X1596Y1101D02*
Y1133D01*
X1612D01*
X1617Y1128D01*
Y1117D01*
X1612Y1112D01*
X1596D01*
X1607D02*
X1617Y1101D01*
X1628Y1107D02*
X1633Y1101D01*
X1644D01*
X1649Y1107D01*
Y1128D01*
X1644Y1133D01*
X1633D01*
X1628Y1128D01*
Y1122D01*
X1633Y1117D01*
X1649D01*
X1313Y1239D02*
X1308Y1244D01*
X1298D01*
X1292Y1239D01*
Y1218D01*
X1298Y1213D01*
X1308D01*
X1313Y1218D01*
X1345Y1213D02*
X1324D01*
X1345Y1234D01*
Y1239D01*
X1340Y1244D01*
X1329D01*
X1324Y1239D01*
X1355D02*
X1361Y1244D01*
X1371D01*
X1376Y1239D01*
Y1234D01*
X1371Y1228D01*
X1376Y1223D01*
Y1218D01*
X1371Y1213D01*
X1361D01*
X1355Y1218D01*
Y1223D01*
X1361Y1228D01*
X1355Y1234D01*
Y1239D01*
X1361Y1228D02*
X1371D01*
X1208Y1477D02*
Y1451D01*
X1213Y1446D01*
X1224D01*
X1229Y1451D01*
Y1477D01*
X1239Y1446D02*
X1250D01*
X1245D01*
Y1477D01*
X1239Y1472D01*
X568Y912D02*
Y944D01*
X584D01*
X589Y939D01*
Y928D01*
X584Y923D01*
X568D01*
X578D02*
X589Y912D01*
X599D02*
X610D01*
X605D01*
Y944D01*
X599Y939D01*
X37Y1009D02*
Y1040D01*
X53D01*
X58Y1035D01*
Y1024D01*
X53Y1019D01*
X37D01*
X48D02*
X58Y1009D01*
X69D02*
Y1030D01*
X79Y1040D01*
X90Y1030D01*
Y1009D01*
Y1024D01*
X69D01*
X100Y1040D02*
Y1009D01*
X116D01*
X121Y1014D01*
Y1035D01*
X116Y1040D01*
X100D01*
X132D02*
X142D01*
X137D01*
Y1009D01*
X132D01*
X142D01*
X174Y1040D02*
X163D01*
X158Y1035D01*
Y1014D01*
X163Y1009D01*
X174D01*
X179Y1014D01*
Y1035D01*
X174Y1040D01*
X1871Y645D02*
Y676D01*
X1887D01*
X1892Y671D01*
Y661D01*
X1887Y655D01*
X1871D01*
X1923Y671D02*
X1918Y676D01*
X1908D01*
X1902Y671D01*
Y666D01*
X1908Y661D01*
X1918D01*
X1923Y655D01*
Y650D01*
X1918Y645D01*
X1908D01*
X1902Y650D01*
X1934Y676D02*
Y645D01*
X1944Y655D01*
X1955Y645D01*
Y676D01*
X1508Y579D02*
Y610D01*
X1518Y600D01*
X1529Y610D01*
Y579D01*
X1555Y610D02*
X1545D01*
X1539Y605D01*
Y584D01*
X1545Y579D01*
X1555D01*
X1560Y584D01*
Y605D01*
X1555Y610D01*
X1571D02*
X1592D01*
X1581D01*
Y579D01*
X1618Y610D02*
X1608D01*
X1602Y605D01*
Y584D01*
X1608Y579D01*
X1618D01*
X1623Y584D01*
Y605D01*
X1618Y610D01*
X1634Y579D02*
Y610D01*
X1650D01*
X1655Y605D01*
Y594D01*
X1650Y589D01*
X1634D01*
X1644D02*
X1655Y579D01*
X1679Y1070D02*
X1674Y1075D01*
X1663D01*
X1658Y1070D01*
Y1049D01*
X1663Y1044D01*
X1674D01*
X1679Y1049D01*
Y1059D01*
X1669D01*
X973Y673D02*
X968Y678D01*
X957D01*
X952Y673D01*
Y652D01*
X957Y647D01*
X968D01*
X973Y652D01*
X984Y647D02*
X994D01*
X989D01*
Y678D01*
X984Y673D01*
X1010Y678D02*
X1031D01*
Y673D01*
X1010Y652D01*
Y647D01*
X766Y1036D02*
X761Y1041D01*
X750D01*
X745Y1036D01*
Y1015D01*
X750Y1010D01*
X761D01*
X766Y1015D01*
X776Y1010D02*
X787D01*
X782D01*
Y1041D01*
X776Y1036D01*
X803D02*
X808Y1041D01*
X818D01*
X824Y1036D01*
Y1015D01*
X818Y1010D01*
X808D01*
X803Y1015D01*
Y1036D01*
X837Y1635D02*
X832Y1640D01*
X821D01*
X816Y1635D01*
Y1614D01*
X821Y1609D01*
X832D01*
X837Y1614D01*
X847D02*
X853Y1609D01*
X863D01*
X868Y1614D01*
Y1635D01*
X863Y1640D01*
X853D01*
X847Y1635D01*
Y1630D01*
X853Y1625D01*
X868D01*
X1735Y540D02*
X1729Y545D01*
X1719D01*
X1714Y540D01*
Y519D01*
X1719Y514D01*
X1729D01*
X1735Y519D01*
X1745Y540D02*
X1750Y545D01*
X1761D01*
X1766Y540D01*
Y535D01*
X1761Y530D01*
X1756D01*
X1761D01*
X1766Y524D01*
Y519D01*
X1761Y514D01*
X1750D01*
X1745Y519D01*
X686Y570D02*
X681Y575D01*
X671D01*
X665Y570D01*
Y549D01*
X671Y543D01*
X681D01*
X686Y549D01*
X718Y543D02*
X697D01*
X718Y564D01*
Y570D01*
X713Y575D01*
X702D01*
X697Y570D01*
X744Y543D02*
Y575D01*
X728Y559D01*
X749D01*
X1318Y608D02*
X1312Y614D01*
X1302D01*
X1297Y608D01*
Y587D01*
X1302Y582D01*
X1312D01*
X1318Y587D01*
X1349Y582D02*
X1328D01*
X1349Y603D01*
Y608D01*
X1344Y614D01*
X1333D01*
X1328Y608D01*
X1360Y582D02*
X1370D01*
X1365D01*
Y614D01*
X1360Y608D01*
X1769Y733D02*
X1764Y738D01*
X1753D01*
X1748Y733D01*
Y712D01*
X1753Y707D01*
X1764D01*
X1769Y712D01*
X1780Y707D02*
X1790D01*
X1785D01*
Y738D01*
X1780Y733D01*
X1806Y712D02*
X1811Y707D01*
X1822D01*
X1827Y712D01*
Y733D01*
X1822Y738D01*
X1811D01*
X1806Y733D01*
Y728D01*
X1811Y722D01*
X1827D01*
X666Y1038D02*
X661Y1043D01*
X650D01*
X645Y1038D01*
Y1017D01*
X650Y1012D01*
X661D01*
X666Y1017D01*
X676Y1012D02*
X687D01*
X682D01*
Y1043D01*
X676Y1038D01*
X703Y1012D02*
X713D01*
X708D01*
Y1043D01*
X703Y1038D01*
X17Y1574D02*
Y1548D01*
X22Y1542D01*
X32D01*
X38Y1548D01*
Y1574D01*
X48Y1542D02*
Y1563D01*
X59Y1574D01*
X69Y1563D01*
Y1542D01*
Y1558D01*
X48D01*
X80Y1542D02*
Y1574D01*
X95D01*
X101Y1569D01*
Y1558D01*
X95Y1553D01*
X80D01*
X90D02*
X101Y1542D01*
X111Y1574D02*
X132D01*
X122D01*
Y1542D01*
X164D02*
X143D01*
X164Y1563D01*
Y1569D01*
X158Y1574D01*
X148D01*
X143Y1569D01*
X597Y578D02*
Y546D01*
X618D01*
X629D02*
X639D01*
X634D01*
Y578D01*
X629Y573D01*
X889Y500D02*
X884Y505D01*
X873D01*
X868Y500D01*
Y479D01*
X873Y473D01*
X884D01*
X889Y479D01*
X921Y473D02*
X900D01*
X921Y494D01*
Y500D01*
X915Y505D01*
X905D01*
X900Y500D01*
X931Y505D02*
X952D01*
Y500D01*
X931Y479D01*
Y473D01*
X548Y1018D02*
X543Y1023D01*
X532D01*
X527Y1018D01*
Y997D01*
X532Y992D01*
X543D01*
X548Y997D01*
X579Y992D02*
X558D01*
X579Y1013D01*
Y1018D01*
X574Y1023D01*
X564D01*
X558Y1018D01*
X611Y1023D02*
X590D01*
Y1008D01*
X600Y1013D01*
X606D01*
X611Y1008D01*
Y997D01*
X606Y992D01*
X595D01*
X590Y997D01*
X1196Y595D02*
X1190Y600D01*
X1180D01*
X1175Y595D01*
Y574D01*
X1180Y568D01*
X1190D01*
X1196Y574D01*
X1227Y568D02*
X1206D01*
X1227Y589D01*
Y595D01*
X1222Y600D01*
X1211D01*
X1206Y595D01*
X1259Y568D02*
X1238D01*
X1259Y589D01*
Y595D01*
X1253Y600D01*
X1243D01*
X1238Y595D01*
X779Y1541D02*
X774Y1546D01*
X763D01*
X758Y1541D01*
Y1520D01*
X763Y1515D01*
X774D01*
X779Y1520D01*
X810Y1546D02*
X789D01*
Y1531D01*
X800Y1536D01*
X805D01*
X810Y1531D01*
Y1520D01*
X805Y1515D01*
X795D01*
X789Y1520D01*
X1104Y1036D02*
X1098Y1041D01*
X1088D01*
X1083Y1036D01*
Y1015D01*
X1088Y1010D01*
X1098D01*
X1104Y1015D01*
X1135Y1041D02*
X1125Y1036D01*
X1114Y1026D01*
Y1015D01*
X1119Y1010D01*
X1130D01*
X1135Y1015D01*
Y1020D01*
X1130Y1026D01*
X1114D01*
X1350Y1477D02*
X1345Y1482D01*
X1334D01*
X1329Y1477D01*
Y1456D01*
X1334Y1451D01*
X1345D01*
X1350Y1456D01*
X1360Y1482D02*
X1381D01*
Y1477D01*
X1360Y1456D01*
Y1451D01*
X1023Y1566D02*
X1018Y1571D01*
X1007D01*
X1002Y1566D01*
Y1545D01*
X1007Y1540D01*
X1018D01*
X1023Y1545D01*
X1033Y1566D02*
X1039Y1571D01*
X1049D01*
X1054Y1566D01*
Y1561D01*
X1049Y1555D01*
X1054Y1550D01*
Y1545D01*
X1049Y1540D01*
X1039D01*
X1033Y1545D01*
Y1550D01*
X1039Y1555D01*
X1033Y1561D01*
Y1566D01*
X1039Y1555D02*
X1049D01*
X779Y1480D02*
X774Y1485D01*
X763D01*
X758Y1480D01*
Y1459D01*
X763Y1454D01*
X774D01*
X779Y1459D01*
X789Y1454D02*
X800D01*
X795D01*
Y1485D01*
X789Y1480D01*
X774Y1337D02*
X769Y1342D01*
X758D01*
X753Y1337D01*
Y1316D01*
X758Y1311D01*
X769D01*
X774Y1316D01*
X805Y1311D02*
X784D01*
X805Y1332D01*
Y1337D01*
X800Y1342D01*
X790D01*
X784Y1337D01*
X1530Y1706D02*
X1525Y1712D01*
X1515D01*
X1509Y1706D01*
Y1685D01*
X1515Y1680D01*
X1525D01*
X1530Y1685D01*
X1557Y1680D02*
Y1712D01*
X1541Y1696D01*
X1562D01*
X1343Y256D02*
X1338Y261D01*
X1327D01*
X1322Y256D01*
Y235D01*
X1327Y229D01*
X1338D01*
X1343Y235D01*
X1353Y229D02*
X1364D01*
X1359D01*
Y261D01*
X1353Y256D01*
X1380D02*
X1385Y261D01*
X1395D01*
X1401Y256D01*
Y250D01*
X1395Y245D01*
X1390D01*
X1395D01*
X1401Y240D01*
Y235D01*
X1395Y229D01*
X1385D01*
X1380Y235D01*
X847Y988D02*
X842Y993D01*
X832D01*
X826Y988D01*
Y967D01*
X832Y962D01*
X842D01*
X847Y967D01*
X858Y962D02*
X868D01*
X863D01*
Y993D01*
X858Y988D01*
X905Y993D02*
X895Y988D01*
X884Y978D01*
Y967D01*
X889Y962D01*
X900D01*
X905Y967D01*
Y972D01*
X900Y978D01*
X884D01*
X967Y831D02*
X962Y836D01*
X951D01*
X946Y831D01*
Y810D01*
X951Y805D01*
X962D01*
X967Y810D01*
X978Y805D02*
X988D01*
X983D01*
Y836D01*
X978Y831D01*
X1004D02*
X1009Y836D01*
X1020D01*
X1025Y831D01*
Y826D01*
X1020Y821D01*
X1025Y815D01*
Y810D01*
X1020Y805D01*
X1009D01*
X1004Y810D01*
Y815D01*
X1009Y821D01*
X1004Y826D01*
Y831D01*
X1009Y821D02*
X1020D01*
X789Y583D02*
X783Y589D01*
X773D01*
X768Y583D01*
Y562D01*
X773Y557D01*
X783D01*
X789Y562D01*
X820Y557D02*
X799D01*
X820Y578D01*
Y583D01*
X815Y589D01*
X804D01*
X799Y583D01*
X831D02*
X836Y589D01*
X846D01*
X852Y583D01*
Y578D01*
X846Y573D01*
X841D01*
X846D01*
X852Y568D01*
Y562D01*
X846Y557D01*
X836D01*
X831Y562D01*
X671Y383D02*
Y351D01*
X687D01*
X692Y356D01*
Y362D01*
X687Y367D01*
X671D01*
X687D01*
X692Y372D01*
Y377D01*
X687Y383D01*
X671D01*
X703D02*
Y351D01*
X724D01*
X755Y383D02*
X734D01*
Y351D01*
X755D01*
X734Y367D02*
X745D01*
X766Y351D02*
X776D01*
X771D01*
Y383D01*
X766Y377D01*
X735Y1897D02*
Y1928D01*
X751D01*
X756Y1923D01*
Y1912D01*
X751Y1907D01*
X735D01*
X783Y1928D02*
X772D01*
X767Y1923D01*
Y1902D01*
X772Y1897D01*
X783D01*
X788Y1902D01*
Y1923D01*
X783Y1928D01*
X798D02*
Y1897D01*
X809Y1907D01*
X819Y1897D01*
Y1928D01*
X851D02*
X830D01*
Y1897D01*
X851D01*
X830Y1912D02*
X840D01*
X861Y1897D02*
Y1928D01*
X877D01*
X882Y1923D01*
Y1912D01*
X877Y1907D01*
X861D01*
X872D02*
X882Y1897D01*
X893D02*
X903D01*
X898D01*
Y1928D01*
X893Y1923D01*
X1014D02*
X1009Y1928D01*
X998D01*
X993Y1923D01*
Y1918D01*
X998Y1912D01*
X1009D01*
X1014Y1907D01*
Y1902D01*
X1009Y1897D01*
X998D01*
X993Y1902D01*
X1025Y1928D02*
X1046D01*
X1035D01*
Y1897D01*
X1056D02*
X1067D01*
X1061D01*
Y1928D01*
X1056Y1923D01*
X1221D02*
X1215Y1928D01*
X1205D01*
X1200Y1923D01*
Y1918D01*
X1205Y1912D01*
X1215D01*
X1221Y1907D01*
Y1902D01*
X1215Y1897D01*
X1205D01*
X1200Y1902D01*
X1231Y1928D02*
X1252D01*
X1242D01*
Y1897D01*
X1284D02*
X1263D01*
X1284Y1918D01*
Y1923D01*
X1278Y1928D01*
X1268D01*
X1263Y1923D01*
X425Y83D02*
Y51D01*
X441D01*
X446Y57D01*
Y78D01*
X441Y83D01*
X425D01*
X457Y51D02*
X467D01*
X462D01*
Y83D01*
X457Y78D01*
X1509Y1943D02*
Y1912D01*
X1525D01*
X1530Y1917D01*
Y1938D01*
X1525Y1943D01*
X1509D01*
X1562Y1912D02*
X1541D01*
X1562Y1933D01*
Y1938D01*
X1557Y1943D01*
X1546D01*
X1541Y1938D01*
X1461Y58D02*
Y27D01*
X1477D01*
X1482Y32D01*
Y53D01*
X1477Y58D01*
X1461D01*
X1513D02*
X1492D01*
Y43D01*
X1503Y48D01*
X1508D01*
X1513Y43D01*
Y32D01*
X1508Y27D01*
X1498D01*
X1492Y32D01*
X417Y1917D02*
Y1886D01*
X433D01*
X438Y1891D01*
Y1912D01*
X433Y1917D01*
X417D01*
X464Y1886D02*
Y1917D01*
X448Y1902D01*
X469D01*
X334Y130D02*
X311Y152D01*
X326D01*
Y167D01*
X349Y145D01*
X356Y152D02*
X363Y159D01*
X360Y156D01*
X337Y178D01*
X337Y170D01*
X1610Y1794D02*
X1587Y1817D01*
X1602D01*
Y1832D01*
X1625Y1809D01*
X1647Y1832D02*
X1632Y1817D01*
Y1846D01*
X1628Y1850D01*
X1621D01*
X1613Y1843D01*
X1613Y1835D01*
X1596Y156D02*
X1618Y178D01*
Y163D01*
X1633D01*
X1611Y141D01*
X1629Y122D02*
X1651Y144D01*
X1629Y144D01*
X1644Y130D01*
X317Y1829D02*
X339Y1851D01*
Y1836D01*
X354D01*
X332Y1814D01*
X358Y1825D02*
X365Y1825D01*
X373Y1818D01*
Y1810D01*
X369Y1806D01*
X362D01*
X358Y1810D01*
X362Y1806D01*
X362Y1799D01*
X358Y1795D01*
X350Y1795D01*
X343Y1803D01*
Y1810D01*
X1578Y1597D02*
Y1571D01*
X1584Y1565D01*
X1594D01*
X1599Y1571D01*
Y1597D01*
X1610Y1565D02*
Y1586D01*
X1620Y1597D01*
X1631Y1586D01*
Y1565D01*
Y1581D01*
X1610D01*
X1641Y1565D02*
Y1597D01*
X1657D01*
X1662Y1592D01*
Y1581D01*
X1657Y1576D01*
X1641D01*
X1652D02*
X1662Y1565D01*
X1673Y1597D02*
X1694D01*
X1683D01*
Y1565D01*
X1704D02*
X1715D01*
X1710D01*
Y1597D01*
X1704Y1592D01*
X1873Y996D02*
Y964D01*
X1889D01*
X1894Y969D01*
Y975D01*
X1889Y980D01*
X1873D01*
X1889D01*
X1894Y985D01*
Y990D01*
X1889Y996D01*
X1873D01*
X1905Y964D02*
Y985D01*
X1915Y996D01*
X1926Y985D01*
Y964D01*
Y980D01*
X1905D01*
X1936Y996D02*
X1957D01*
X1946D01*
Y964D01*
X571Y32D02*
Y53D01*
X566Y58D01*
X555D01*
X550Y53D01*
Y32D01*
X555Y27D01*
X566D01*
X560Y37D02*
X571Y27D01*
X566D02*
X571Y32D01*
X581Y27D02*
X592D01*
X587D01*
Y58D01*
X581Y53D01*
X1348Y1890D02*
Y1911D01*
X1343Y1916D01*
X1333D01*
X1327Y1911D01*
Y1890D01*
X1333Y1885D01*
X1343D01*
X1338Y1895D02*
X1348Y1885D01*
X1343D02*
X1348Y1890D01*
X1380Y1885D02*
X1359D01*
X1380Y1906D01*
Y1911D01*
X1374Y1916D01*
X1364D01*
X1359Y1911D01*
X1268Y48D02*
Y69D01*
X1262Y75D01*
X1252D01*
X1247Y69D01*
Y48D01*
X1252Y43D01*
X1262D01*
X1257Y54D02*
X1268Y43D01*
X1262D02*
X1268Y48D01*
X1294Y43D02*
Y75D01*
X1278Y59D01*
X1299D01*
X669Y1847D02*
Y1868D01*
X664Y1873D01*
X654D01*
X648Y1868D01*
Y1847D01*
X654Y1841D01*
X664D01*
X659Y1852D02*
X669Y1841D01*
X664D02*
X669Y1847D01*
X680Y1868D02*
X685Y1873D01*
X696D01*
X701Y1868D01*
Y1862D01*
X696Y1857D01*
X690D01*
X696D01*
X701Y1852D01*
Y1847D01*
X696Y1841D01*
X685D01*
X680Y1847D01*
X1011Y1666D02*
Y1697D01*
X1027D01*
X1032Y1692D01*
Y1682D01*
X1027Y1676D01*
X1011D01*
X1021D02*
X1032Y1666D01*
X1063D02*
X1042D01*
X1063Y1687D01*
Y1692D01*
X1058Y1697D01*
X1048D01*
X1042Y1692D01*
X1402Y1240D02*
Y1272D01*
X1418D01*
X1423Y1266D01*
Y1256D01*
X1418Y1251D01*
X1402D01*
X1412D02*
X1423Y1240D01*
X1433Y1266D02*
X1439Y1272D01*
X1449D01*
X1454Y1266D01*
Y1261D01*
X1449Y1256D01*
X1444D01*
X1449D01*
X1454Y1251D01*
Y1245D01*
X1449Y1240D01*
X1439D01*
X1433Y1245D01*
X1402Y1334D02*
Y1365D01*
X1418D01*
X1423Y1360D01*
Y1349D01*
X1418Y1344D01*
X1402D01*
X1412D02*
X1423Y1334D01*
X1449D02*
Y1365D01*
X1433Y1349D01*
X1454D01*
X486Y699D02*
Y730D01*
X501D01*
X507Y725D01*
Y715D01*
X501Y709D01*
X486D01*
X496D02*
X507Y699D01*
X538Y730D02*
X517D01*
Y715D01*
X528Y720D01*
X533D01*
X538Y715D01*
Y704D01*
X533Y699D01*
X522D01*
X517Y704D01*
X488Y767D02*
Y798D01*
X503D01*
X509Y793D01*
Y783D01*
X503Y777D01*
X488D01*
X498D02*
X509Y767D01*
X540Y798D02*
X530Y793D01*
X519Y783D01*
Y772D01*
X524Y767D01*
X535D01*
X540Y772D01*
Y777D01*
X535Y783D01*
X519D01*
X812Y351D02*
Y382D01*
X828D01*
X833Y377D01*
Y366D01*
X828Y361D01*
X812D01*
X823D02*
X833Y351D01*
X844Y377D02*
X849Y382D01*
X859D01*
X865Y377D01*
Y372D01*
X859Y366D01*
X865Y361D01*
Y356D01*
X859Y351D01*
X849D01*
X844Y356D01*
Y361D01*
X849Y366D01*
X844Y372D01*
Y377D01*
X849Y366D02*
X859D01*
X690Y1723D02*
Y1754D01*
X706D01*
X711Y1749D01*
Y1739D01*
X706Y1733D01*
X690D01*
X700D02*
X711Y1723D01*
X721D02*
X732D01*
X727D01*
Y1754D01*
X721Y1749D01*
X769Y1754D02*
X748D01*
Y1739D01*
X758Y1744D01*
X763D01*
X769Y1739D01*
Y1728D01*
X763Y1723D01*
X753D01*
X748Y1728D01*
X886Y1712D02*
Y1743D01*
X902D01*
X907Y1738D01*
Y1727D01*
X902Y1722D01*
X886D01*
X897D02*
X907Y1712D01*
X918D02*
X928D01*
X923D01*
Y1743D01*
X918Y1738D01*
X965Y1743D02*
X954Y1738D01*
X944Y1727D01*
Y1717D01*
X949Y1712D01*
X960D01*
X965Y1717D01*
Y1722D01*
X960Y1727D01*
X944D01*
X1094Y1715D02*
Y1746D01*
X1110D01*
X1115Y1741D01*
Y1731D01*
X1110Y1725D01*
X1094D01*
X1104D02*
X1115Y1715D01*
X1125D02*
X1136D01*
X1131D01*
Y1746D01*
X1125Y1741D01*
X1152Y1746D02*
X1173D01*
Y1741D01*
X1152Y1720D01*
Y1715D01*
X397Y351D02*
Y382D01*
X413D01*
X418Y377D01*
Y367D01*
X413Y362D01*
X397D01*
X408D02*
X418Y351D01*
X429D02*
X439D01*
X434D01*
Y382D01*
X429Y377D01*
X455Y351D02*
X465D01*
X460D01*
Y382D01*
X455Y377D01*
X396Y280D02*
Y311D01*
X412D01*
X417Y306D01*
Y296D01*
X412Y291D01*
X396D01*
X407D02*
X417Y280D01*
X428D02*
X438D01*
X433D01*
Y311D01*
X428Y306D01*
X475Y280D02*
X454D01*
X475Y301D01*
Y306D01*
X470Y311D01*
X459D01*
X454Y306D01*
X1214Y1600D02*
Y1632D01*
X1230D01*
X1235Y1627D01*
Y1616D01*
X1230Y1611D01*
X1214D01*
X1224D02*
X1235Y1600D01*
X1245D02*
X1256D01*
X1251D01*
Y1632D01*
X1245Y1627D01*
X1272D02*
X1277Y1632D01*
X1287D01*
X1293Y1627D01*
Y1621D01*
X1287Y1616D01*
X1282D01*
X1287D01*
X1293Y1611D01*
Y1606D01*
X1287Y1600D01*
X1277D01*
X1272Y1606D01*
X1214Y1658D02*
Y1690D01*
X1230D01*
X1235Y1685D01*
Y1674D01*
X1230Y1669D01*
X1214D01*
X1224D02*
X1235Y1658D01*
X1245D02*
X1256D01*
X1251D01*
Y1690D01*
X1245Y1685D01*
X1287Y1658D02*
Y1690D01*
X1272Y1674D01*
X1293D01*
X1556Y346D02*
Y378D01*
X1572D01*
X1577Y372D01*
Y362D01*
X1572Y357D01*
X1556D01*
X1566D02*
X1577Y346D01*
X1608D02*
X1587D01*
X1608Y367D01*
Y372D01*
X1603Y378D01*
X1593D01*
X1587Y372D01*
X1619D02*
X1624Y378D01*
X1635D01*
X1640Y372D01*
Y351D01*
X1635Y346D01*
X1624D01*
X1619Y351D01*
Y372D01*
X1559Y278D02*
Y310D01*
X1575D01*
X1580Y304D01*
Y294D01*
X1575Y289D01*
X1559D01*
X1570D02*
X1580Y278D01*
X1612D02*
X1591D01*
X1612Y299D01*
Y304D01*
X1607Y310D01*
X1596D01*
X1591Y304D01*
X1622Y278D02*
X1633D01*
X1628D01*
Y310D01*
X1622Y304D01*
X445Y1582D02*
Y1613D01*
X461D01*
X466Y1608D01*
Y1597D01*
X461Y1592D01*
X445D01*
X456D02*
X466Y1582D01*
X477D02*
X487D01*
X482D01*
Y1613D01*
X477Y1608D01*
X503D02*
X508Y1613D01*
X519D01*
X524Y1608D01*
Y1603D01*
X519Y1597D01*
X524Y1592D01*
Y1587D01*
X519Y1582D01*
X508D01*
X503Y1587D01*
Y1592D01*
X508Y1597D01*
X503Y1603D01*
Y1608D01*
X508Y1597D02*
X519D01*
X445Y1646D02*
Y1677D01*
X461D01*
X466Y1672D01*
Y1661D01*
X461Y1656D01*
X445D01*
X456D02*
X466Y1646D01*
X477D02*
X487D01*
X482D01*
Y1677D01*
X477Y1672D01*
X503Y1651D02*
X508Y1646D01*
X519D01*
X524Y1651D01*
Y1672D01*
X519Y1677D01*
X508D01*
X503Y1672D01*
Y1667D01*
X508Y1661D01*
X524D01*
X698Y886D02*
X708D01*
X703D01*
Y854D01*
X698D01*
X708D01*
X724D02*
Y886D01*
X735Y875D01*
X745Y886D01*
Y854D01*
X756Y886D02*
Y860D01*
X761Y854D01*
X771D01*
X777Y860D01*
Y886D01*
X1065Y623D02*
Y597D01*
X1070Y592D01*
X1081D01*
X1086Y597D01*
Y623D01*
X1112Y592D02*
Y623D01*
X1096Y607D01*
X1117D01*
X619Y1481D02*
Y1476D01*
X629Y1466D01*
X640Y1476D01*
Y1481D01*
X629Y1466D02*
Y1450D01*
X650D02*
X661D01*
X656D01*
Y1481D01*
X650Y1476D01*
D18*
X67Y466D02*
X62Y471D01*
X52D01*
X46Y466D01*
Y445D01*
X52Y440D01*
X62D01*
X67Y445D01*
Y456D01*
X57D01*
X156Y469D02*
Y448D01*
X166Y459D02*
X145D01*
X1562Y1062D02*
X1583D01*
X1573Y1073D02*
Y1052D01*
X1450Y1070D02*
X1445Y1076D01*
X1434D01*
X1429Y1070D01*
Y1065D01*
X1434Y1060D01*
X1445D01*
X1450Y1055D01*
Y1049D01*
X1445Y1044D01*
X1434D01*
X1429Y1049D01*
X1461Y1076D02*
X1471D01*
X1466D01*
Y1044D01*
X1461D01*
X1471D01*
X1508Y1070D02*
X1503Y1076D01*
X1492D01*
X1487Y1070D01*
Y1049D01*
X1492Y1044D01*
X1503D01*
X1508Y1049D01*
Y1060D01*
X1497D01*
D19*
X1035Y378D02*
Y360D01*
X1027Y373D02*
X1042Y364D01*
Y373D02*
X1027Y364D01*
M02*
