G04*
G04 #@! TF.GenerationSoftware,Altium Limited,Altium Designer,18.1.1 (9)*
G04*
G04 Layer_Color=16711935*
%FSLAX23Y23*%
%MOIN*%
G70*
G01*
G75*
%ADD17C,0.010*%
D17*
X1772Y0D02*
X1782Y0D01*
X1792Y1D01*
X1801Y2D01*
X1811Y4D01*
X1821Y6D01*
X1831Y9D01*
X1840Y12D01*
X1849Y16D01*
X1858Y20D01*
X1867Y25D01*
X1876Y30D01*
X1884Y35D01*
X1892Y41D01*
X1900Y47D01*
X1907Y54D01*
X1914Y61D01*
X1921Y69D01*
X1927Y76D01*
X1933Y84D01*
X1939Y93D01*
X1944Y101D01*
X1948Y110D01*
X1953Y119D01*
X1956Y128D01*
X1959Y138D01*
X1962Y148D01*
X1964Y157D01*
X1966Y167D01*
X1967Y177D01*
X1968Y187D01*
X1969Y197D01*
X197Y1969D02*
X187Y1969D01*
X177Y1968D01*
X167Y1967D01*
X157Y1965D01*
X147Y1963D01*
X138Y1960D01*
X128Y1957D01*
X119Y1953D01*
X110Y1949D01*
X101Y1944D01*
X93Y1939D01*
X84Y1934D01*
X76Y1928D01*
X68Y1922D01*
X61Y1915D01*
X54Y1908D01*
X47Y1900D01*
X41Y1893D01*
X35Y1884D01*
X30Y1876D01*
X25Y1867D01*
X20Y1859D01*
X16Y1850D01*
X12Y1840D01*
X9Y1831D01*
X6Y1821D01*
X4Y1811D01*
X2Y1802D01*
X1Y1792D01*
X0Y1782D01*
X-0Y1772D01*
X1969D02*
X1968Y1782D01*
X1967Y1792D01*
X1966Y1801D01*
X1964Y1811D01*
X1962Y1821D01*
X1959Y1831D01*
X1956Y1840D01*
X1953Y1849D01*
X1948Y1858D01*
X1944Y1867D01*
X1939Y1876D01*
X1933Y1884D01*
X1927Y1892D01*
X1921Y1900D01*
X1914Y1907D01*
X1907Y1914D01*
X1900Y1921D01*
X1892Y1927D01*
X1884Y1933D01*
X1876Y1939D01*
X1867Y1944D01*
X1858Y1948D01*
X1849Y1953D01*
X1840Y1956D01*
X1831Y1959D01*
X1821Y1962D01*
X1811Y1964D01*
X1801Y1966D01*
X1792Y1967D01*
X1782Y1968D01*
X1772Y1969D01*
X0Y197D02*
X0Y187D01*
X1Y177D01*
X2Y167D01*
X4Y157D01*
X6Y148D01*
X9Y138D01*
X12Y128D01*
X16Y119D01*
X20Y110D01*
X25Y101D01*
X30Y93D01*
X35Y84D01*
X41Y76D01*
X47Y69D01*
X54Y61D01*
X61Y54D01*
X69Y47D01*
X76Y41D01*
X84Y35D01*
X93Y30D01*
X101Y25D01*
X110Y20D01*
X119Y16D01*
X128Y12D01*
X138Y9D01*
X148Y6D01*
X157Y4D01*
X167Y2D01*
X177Y1D01*
X187Y0D01*
X197Y0D01*
X1969Y1772D02*
X1969Y197D01*
X197Y1969D02*
X1772D01*
X0Y1772D02*
X0Y197D01*
X197Y0D02*
X1772Y0D01*
M02*
