G04*
G04 #@! TF.GenerationSoftware,Altium Limited,Altium Designer,18.1.1 (9)*
G04*
G04 Layer_Color=32768*
%FSLAX23Y23*%
%MOIN*%
G70*
G01*
G75*
%ADD90C,0.002*%
%ADD91C,0.004*%
D90*
X858Y1083D02*
Y1492D01*
X1268Y1083D02*
Y1492D01*
X858D02*
X1268D01*
X858Y1083D02*
X1268D01*
D91*
X1750Y768D02*
X1825D01*
X1750Y925D02*
X1825D01*
X1750Y768D02*
Y925D01*
X1825Y768D02*
Y925D01*
X1787Y827D02*
Y866D01*
X1768Y846D02*
X1807D01*
X1043Y1287D02*
X1083D01*
X1063Y1268D02*
Y1307D01*
X1213Y365D02*
X1273D01*
X1213Y255D02*
X1273D01*
Y365D01*
X1213Y255D02*
Y365D01*
X1243Y290D02*
Y330D01*
X1223Y310D02*
X1263D01*
X1662Y472D02*
X1706D01*
X1662Y378D02*
X1706D01*
Y472D01*
X1662Y378D02*
Y472D01*
X1684Y406D02*
Y444D01*
X1665Y425D02*
X1703D01*
X1082Y46D02*
X1125D01*
X1082Y141D02*
X1125D01*
X1082Y46D02*
Y141D01*
X1125Y46D02*
Y141D01*
X1103Y75D02*
Y112D01*
X1085Y94D02*
X1122D01*
X762D02*
X799D01*
X781Y75D02*
Y112D01*
X802Y46D02*
Y141D01*
X759Y46D02*
Y141D01*
X802D01*
X759Y46D02*
X802D01*
X842Y94D02*
X879D01*
X860Y75D02*
Y112D01*
X882Y46D02*
Y141D01*
X839Y46D02*
Y141D01*
X882D01*
X839Y46D02*
X882D01*
X1103Y656D02*
Y694D01*
X1085Y675D02*
X1122D01*
X1056Y654D02*
X1151D01*
X1056Y697D02*
X1151D01*
Y654D02*
Y697D01*
X1056Y654D02*
Y697D01*
X325Y686D02*
Y729D01*
X419Y686D02*
Y729D01*
X325D02*
X419D01*
X325Y686D02*
X419D01*
X353Y708D02*
X391D01*
X372Y689D02*
Y726D01*
X1319Y1103D02*
X1363D01*
X1319Y1197D02*
X1363D01*
X1319Y1103D02*
Y1197D01*
X1363Y1103D02*
Y1197D01*
X1341Y1131D02*
Y1169D01*
X1322Y1150D02*
X1360D01*
X1390Y1104D02*
X1434D01*
X1390Y1198D02*
X1434D01*
X1390Y1104D02*
Y1198D01*
X1434Y1104D02*
Y1198D01*
X1412Y1132D02*
Y1170D01*
X1393Y1151D02*
X1431D01*
X1579Y1097D02*
Y1140D01*
X1484Y1097D02*
Y1140D01*
Y1097D02*
X1579D01*
X1484Y1140D02*
X1579D01*
X1513Y1118D02*
X1550D01*
X1531Y1100D02*
Y1137D01*
X632Y852D02*
Y896D01*
X538Y852D02*
Y896D01*
Y852D02*
X632D01*
X538Y896D02*
X632D01*
X566Y874D02*
X604D01*
X585Y855D02*
Y893D01*
X1577Y498D02*
Y557D01*
X1687Y498D02*
Y557D01*
X1577D02*
X1687D01*
X1577Y498D02*
X1687D01*
X1612Y528D02*
X1652D01*
X1632Y508D02*
Y547D01*
X694Y480D02*
X731D01*
X713Y462D02*
Y499D01*
X734Y433D02*
Y528D01*
X691Y433D02*
Y528D01*
X734D01*
X691Y433D02*
X734D01*
X1300Y568D02*
X1359D01*
X1300Y458D02*
X1359D01*
Y568D01*
X1300Y458D02*
Y568D01*
X1330Y493D02*
Y532D01*
X1310Y513D02*
X1349D01*
X987Y695D02*
Y732D01*
X968Y714D02*
X1006D01*
X940Y735D02*
X1034D01*
X940Y692D02*
X1034D01*
X940D02*
Y735D01*
X1034Y692D02*
Y735D01*
X760Y1105D02*
X798D01*
X779Y1086D02*
Y1124D01*
X757Y1058D02*
Y1152D01*
X801Y1058D02*
Y1152D01*
X757Y1058D02*
X801D01*
X757Y1152D02*
X801D01*
X889Y1597D02*
Y1657D01*
X999Y1597D02*
Y1657D01*
X889D02*
X999D01*
X889Y1597D02*
X999D01*
X924Y1627D02*
X964D01*
X944Y1607D02*
Y1647D01*
X552Y1097D02*
X592D01*
X572Y1077D02*
Y1117D01*
X602Y1042D02*
Y1152D01*
X542Y1042D02*
Y1152D01*
X602D01*
X542Y1042D02*
X602D01*
X784Y488D02*
X824D01*
X804Y469D02*
Y508D01*
X834Y433D02*
Y543D01*
X775Y433D02*
Y543D01*
X834D01*
X775Y433D02*
X834D01*
X871Y896D02*
Y935D01*
X851Y915D02*
X891D01*
X816Y945D02*
X926D01*
X816Y886D02*
X926D01*
X816D02*
Y945D01*
X926Y886D02*
Y945D01*
X657Y1152D02*
X701D01*
X657Y1058D02*
X701D01*
Y1152D01*
X657Y1058D02*
Y1152D01*
X679Y1086D02*
Y1124D01*
X660Y1105D02*
X698D01*
X595Y433D02*
X639D01*
X595Y528D02*
X639D01*
X595Y433D02*
Y528D01*
X639Y433D02*
Y528D01*
X617Y462D02*
Y499D01*
X598Y480D02*
X636D01*
X899Y569D02*
X936D01*
X917Y550D02*
Y588D01*
X939Y522D02*
Y616D01*
X896Y522D02*
Y616D01*
X939D01*
X896Y522D02*
X939D01*
X1191Y508D02*
X1228D01*
X1210Y489D02*
Y527D01*
X1188Y461D02*
Y555D01*
X1231Y461D02*
Y555D01*
X1188Y461D02*
X1231D01*
X1188Y555D02*
X1231D01*
X1034Y747D02*
Y790D01*
X940Y747D02*
Y790D01*
Y747D02*
X1034D01*
X940Y790D02*
X1034D01*
X968Y769D02*
X1006D01*
X987Y750D02*
Y788D01*
X1443Y341D02*
Y385D01*
X1538Y341D02*
Y385D01*
X1443D02*
X1538D01*
X1443Y341D02*
X1538D01*
X1472Y363D02*
X1509D01*
X1490Y344D02*
Y382D01*
X1538Y272D02*
Y316D01*
X1443Y272D02*
Y316D01*
Y272D02*
X1538D01*
X1443Y316D02*
X1538D01*
X1472Y294D02*
X1509D01*
X1490Y275D02*
Y313D01*
X592Y277D02*
Y321D01*
X498Y277D02*
Y321D01*
Y277D02*
X592D01*
X498Y321D02*
X592D01*
X526Y299D02*
X564D01*
X545Y280D02*
Y318D01*
X498Y347D02*
Y391D01*
X592Y347D02*
Y391D01*
X498D02*
X592D01*
X498Y347D02*
X592D01*
X526Y369D02*
X564D01*
X545Y350D02*
Y388D01*
X636Y1640D02*
Y1683D01*
X541Y1640D02*
Y1683D01*
Y1640D02*
X636D01*
X541Y1683D02*
X636D01*
X570Y1662D02*
X607D01*
X588Y1643D02*
Y1680D01*
X540Y1575D02*
Y1618D01*
X635Y1575D02*
Y1618D01*
X540D02*
X635D01*
X540Y1575D02*
X635D01*
X569Y1597D02*
X606D01*
X587Y1578D02*
Y1615D01*
X1401Y1592D02*
Y1635D01*
X1307Y1592D02*
Y1635D01*
Y1592D02*
X1401D01*
X1307Y1635D02*
X1401D01*
X1335Y1613D02*
X1373D01*
X1354Y1595D02*
Y1632D01*
X1307Y1655D02*
Y1698D01*
X1401Y1655D02*
Y1698D01*
X1307D02*
X1401D01*
X1307Y1655D02*
X1401D01*
X1335Y1676D02*
X1373D01*
X1354Y1658D02*
Y1695D01*
X757Y1211D02*
X801D01*
X757Y1305D02*
X801D01*
X757Y1211D02*
Y1305D01*
X801Y1211D02*
Y1305D01*
X779Y1239D02*
Y1277D01*
X760Y1258D02*
X798D01*
X757Y1442D02*
X801D01*
X757Y1348D02*
X801D01*
Y1442D01*
X757Y1348D02*
Y1442D01*
X779Y1376D02*
Y1414D01*
X760Y1395D02*
X798D01*
X1151Y960D02*
X1194D01*
X1151Y1054D02*
X1194D01*
X1151Y960D02*
Y1054D01*
X1194Y960D02*
Y1054D01*
X1172Y988D02*
Y1026D01*
X1154Y1007D02*
X1191D01*
X1398Y1387D02*
Y1431D01*
X1304Y1387D02*
Y1431D01*
Y1387D02*
X1398D01*
X1304Y1431D02*
X1398D01*
X1332Y1409D02*
X1370D01*
X1351Y1390D02*
Y1428D01*
X823Y1553D02*
X867D01*
X823Y1459D02*
X867D01*
Y1553D01*
X823Y1459D02*
Y1553D01*
X845Y1487D02*
Y1525D01*
X826Y1506D02*
X864D01*
X941Y1536D02*
Y1574D01*
X922Y1555D02*
X960D01*
X894Y1577D02*
X988D01*
X894Y1533D02*
X988D01*
X894D02*
Y1577D01*
X988Y1533D02*
Y1577D01*
X1516Y1614D02*
X1553D01*
X1534Y1595D02*
Y1633D01*
X1556Y1567D02*
Y1661D01*
X1513Y1567D02*
Y1661D01*
X1556D01*
X1513Y1567D02*
X1556D01*
X1342Y325D02*
X1379D01*
X1360Y306D02*
Y344D01*
X1382Y278D02*
Y372D01*
X1339Y278D02*
Y372D01*
X1382D01*
X1339Y278D02*
X1382D01*
X1088Y1637D02*
X1125D01*
X1106Y1618D02*
Y1656D01*
X1128Y1590D02*
Y1684D01*
X1085Y1590D02*
Y1684D01*
X1128D01*
X1085Y1590D02*
X1128D01*
X1472Y1229D02*
X1510D01*
X1491Y1211D02*
Y1248D01*
X1470Y1182D02*
Y1276D01*
X1513Y1182D02*
Y1276D01*
X1470Y1182D02*
X1513D01*
X1470Y1276D02*
X1513D01*
X1473Y1349D02*
X1511D01*
X1492Y1331D02*
Y1368D01*
X1514Y1302D02*
Y1396D01*
X1471Y1302D02*
Y1396D01*
X1514D01*
X1471Y1302D02*
X1514D01*
X596Y695D02*
Y732D01*
X577Y713D02*
X615D01*
X549Y735D02*
X643D01*
X549Y692D02*
X643D01*
X549D02*
Y735D01*
X643Y692D02*
Y735D01*
X596Y766D02*
Y803D01*
X577Y784D02*
X615D01*
X549Y806D02*
X643D01*
X549Y763D02*
X643D01*
X549D02*
Y806D01*
X643Y763D02*
Y806D01*
X822Y285D02*
X859D01*
X840Y266D02*
Y304D01*
X862Y238D02*
Y332D01*
X819Y238D02*
Y332D01*
X862D01*
X819Y238D02*
X862D01*
X691Y1821D02*
X729D01*
X710Y1802D02*
Y1840D01*
X732Y1774D02*
Y1868D01*
X688Y1774D02*
Y1868D01*
X732D01*
X688Y1774D02*
X732D01*
X902Y1821D02*
X939D01*
X920Y1802D02*
Y1840D01*
X942Y1774D02*
Y1868D01*
X899Y1774D02*
Y1868D01*
X942D01*
X899Y1774D02*
X942D01*
X1112Y1821D02*
X1150D01*
X1131Y1802D02*
Y1840D01*
X1153Y1774D02*
Y1868D01*
X1109Y1774D02*
Y1868D01*
X1153D01*
X1109Y1774D02*
X1153D01*
M02*
