G04*
G04 #@! TF.GenerationSoftware,Altium Limited,Altium Designer,18.1.1 (9)*
G04*
G04 Layer_Color=2752767*
%FSLAX23Y23*%
%MOIN*%
G70*
G01*
G75*
%ADD92C,0.002*%
%ADD93C,0.003*%
D92*
X1898Y561D02*
Y577D01*
X1914D01*
Y561D01*
X1898D01*
Y461D02*
Y477D01*
X1914D01*
Y461D01*
X1898D01*
X1897Y789D02*
Y805D01*
X1913D01*
Y789D01*
X1897D01*
Y889D02*
Y905D01*
X1913D01*
Y889D01*
X1897D01*
X152Y533D02*
Y549D01*
X168D01*
Y533D01*
X152D01*
X52D02*
Y549D01*
X68D01*
Y533D01*
X52D01*
X152Y633D02*
Y649D01*
X168D01*
Y633D01*
X152D01*
X52D02*
Y649D01*
X68D01*
Y633D01*
X52D01*
X152Y733D02*
Y749D01*
X168D01*
Y733D01*
X152D01*
X52D02*
Y749D01*
X68D01*
Y733D01*
X52D01*
X152Y833D02*
Y849D01*
X168D01*
Y833D01*
X152D01*
X52D02*
Y849D01*
X68D01*
Y833D01*
X52D01*
X152Y933D02*
Y949D01*
X168D01*
Y933D01*
X152D01*
X52D02*
Y949D01*
X68D01*
Y933D01*
X52D01*
X1562Y668D02*
Y684D01*
X1578D01*
Y668D01*
X1562D01*
Y768D02*
Y784D01*
X1578D01*
Y768D01*
X1562D01*
Y868D02*
Y884D01*
X1578D01*
Y868D01*
X1562D01*
Y968D02*
Y984D01*
X1578D01*
Y968D01*
X1562D01*
X1462Y668D02*
Y684D01*
X1478D01*
Y668D01*
X1462D01*
Y768D02*
Y784D01*
X1478D01*
Y768D01*
X1462D01*
Y868D02*
Y884D01*
X1478D01*
Y868D01*
X1462D01*
Y968D02*
Y984D01*
X1478D01*
Y968D01*
X1462D01*
X1662Y668D02*
Y684D01*
X1678D01*
Y668D01*
X1662D01*
Y768D02*
Y784D01*
X1678D01*
Y768D01*
X1662D01*
Y868D02*
Y884D01*
X1678D01*
Y868D01*
X1662D01*
Y968D02*
Y984D01*
X1678D01*
Y968D01*
X1662D01*
X1657Y1189D02*
Y1205D01*
X1673D01*
Y1189D01*
X1657D01*
Y1289D02*
Y1305D01*
X1673D01*
Y1289D01*
X1657D01*
Y1389D02*
Y1405D01*
X1673D01*
Y1389D01*
X1657D01*
Y1489D02*
Y1505D01*
X1673D01*
Y1489D01*
X1657D01*
X52Y1169D02*
Y1185D01*
X68D01*
Y1169D01*
X52D01*
Y1269D02*
Y1285D01*
X68D01*
Y1269D01*
X52D01*
Y1369D02*
Y1385D01*
X68D01*
Y1369D01*
X52D01*
Y1469D02*
Y1485D01*
X68D01*
Y1469D01*
X52D01*
X246Y1169D02*
Y1185D01*
X262D01*
Y1169D01*
X246D01*
Y1269D02*
Y1285D01*
X262D01*
Y1269D01*
X246D01*
Y1369D02*
Y1385D01*
X262D01*
Y1369D01*
X246D01*
Y1469D02*
Y1485D01*
X262D01*
Y1469D01*
X246D01*
X518Y860D02*
X510Y876D01*
X526D01*
X518Y860D01*
X268Y1121D02*
X260Y1137D01*
X276D01*
X268Y1121D01*
X456Y826D02*
X448Y842D01*
X464D01*
X456Y826D01*
X455Y715D02*
X447Y731D01*
X463D01*
X455Y715D01*
X1891Y1829D02*
X1883Y1845D01*
X1899D01*
X1891Y1829D01*
Y943D02*
X1883Y959D01*
X1899D01*
X1891Y943D01*
Y116D02*
X1883Y132D01*
X1899D01*
X1891Y116D01*
X1832Y1888D02*
X1824Y1904D01*
X1840D01*
X1832Y1888D01*
Y1592D02*
X1824Y1608D01*
X1840D01*
X1832Y1592D01*
Y411D02*
X1824Y427D01*
X1840D01*
X1832Y411D01*
Y352D02*
X1824Y368D01*
X1840D01*
X1832Y352D01*
Y116D02*
X1824Y132D01*
X1840D01*
X1832Y116D01*
Y57D02*
X1824Y73D01*
X1840D01*
X1832Y57D01*
X1773Y1651D02*
X1765Y1667D01*
X1781D01*
X1773Y1651D01*
Y1592D02*
X1765Y1608D01*
X1781D01*
X1773Y1592D01*
Y1120D02*
X1765Y1136D01*
X1781D01*
X1773Y1120D01*
Y1061D02*
X1765Y1077D01*
X1781D01*
X1773Y1061D01*
Y1002D02*
X1765Y1018D01*
X1781D01*
X1773Y1002D01*
Y943D02*
X1765Y959D01*
X1781D01*
X1773Y943D01*
Y707D02*
X1765Y723D01*
X1781D01*
X1773Y707D01*
Y648D02*
X1765Y664D01*
X1781D01*
X1773Y648D01*
Y588D02*
X1765Y604D01*
X1781D01*
X1773Y588D01*
Y529D02*
X1765Y545D01*
X1781D01*
X1773Y529D01*
Y411D02*
X1765Y427D01*
X1781D01*
X1773Y411D01*
Y352D02*
X1765Y368D01*
X1781D01*
X1773Y352D01*
Y293D02*
X1765Y309D01*
X1781D01*
X1773Y293D01*
X1714Y1533D02*
X1706Y1549D01*
X1722D01*
X1714Y1533D01*
Y1474D02*
X1706Y1490D01*
X1722D01*
X1714Y1474D01*
Y1120D02*
X1706Y1136D01*
X1722D01*
X1714Y1120D01*
Y588D02*
X1706Y604D01*
X1722D01*
X1714Y588D01*
Y529D02*
X1706Y545D01*
X1722D01*
X1714Y529D01*
Y352D02*
X1706Y368D01*
X1722D01*
X1714Y352D01*
X1655Y588D02*
X1647Y604D01*
X1663D01*
X1655Y588D01*
Y352D02*
X1647Y368D01*
X1663D01*
X1655Y352D01*
X1596Y1651D02*
X1588Y1667D01*
X1604D01*
X1596Y1651D01*
Y1533D02*
X1588Y1549D01*
X1604D01*
X1596Y1533D01*
Y1474D02*
X1588Y1490D01*
X1604D01*
X1596Y1474D01*
Y1061D02*
X1588Y1077D01*
X1604D01*
X1596Y1061D01*
Y293D02*
X1588Y309D01*
X1604D01*
X1596Y293D01*
X1537Y1711D02*
X1529Y1727D01*
X1545D01*
X1537Y1711D01*
Y1533D02*
X1529Y1549D01*
X1545D01*
X1537Y1533D01*
Y1061D02*
X1529Y1077D01*
X1545D01*
X1537Y1061D01*
Y825D02*
X1529Y841D01*
X1545D01*
X1537Y825D01*
Y707D02*
X1529Y723D01*
X1545D01*
X1537Y707D01*
Y234D02*
X1529Y250D01*
X1545D01*
X1537Y234D01*
X1478Y1829D02*
X1470Y1845D01*
X1486D01*
X1478Y1829D01*
Y1711D02*
X1470Y1727D01*
X1486D01*
X1478Y1711D01*
Y1651D02*
X1470Y1667D01*
X1486D01*
X1478Y1651D01*
Y1061D02*
X1470Y1077D01*
X1486D01*
X1478Y1061D01*
X1419Y1711D02*
X1411Y1727D01*
X1427D01*
X1419Y1711D01*
Y1651D02*
X1411Y1667D01*
X1427D01*
X1419Y1651D01*
Y1533D02*
X1411Y1549D01*
X1427D01*
X1419Y1533D01*
Y1415D02*
X1411Y1431D01*
X1427D01*
X1419Y1415D01*
Y1061D02*
X1411Y1077D01*
X1427D01*
X1419Y1061D01*
Y234D02*
X1411Y250D01*
X1427D01*
X1419Y234D01*
X1360Y1829D02*
X1352Y1845D01*
X1368D01*
X1360Y1829D01*
Y1533D02*
X1352Y1549D01*
X1368D01*
X1360Y1533D01*
Y1474D02*
X1352Y1490D01*
X1368D01*
X1360Y1474D01*
X1301Y1829D02*
X1293Y1845D01*
X1309D01*
X1301Y1829D01*
Y1770D02*
X1293Y1786D01*
X1309D01*
X1301Y1770D01*
Y1711D02*
X1293Y1727D01*
X1309D01*
X1301Y1711D01*
Y1533D02*
X1293Y1549D01*
X1309D01*
X1301Y1533D01*
Y1474D02*
X1293Y1490D01*
X1309D01*
X1301Y1474D01*
X1242Y1711D02*
X1234Y1727D01*
X1250D01*
X1242Y1711D01*
Y1651D02*
X1234Y1667D01*
X1250D01*
X1242Y1651D01*
Y1474D02*
X1234Y1490D01*
X1250D01*
X1242Y1474D01*
Y116D02*
X1234Y132D01*
X1250D01*
X1242Y116D01*
X1183Y1770D02*
X1175Y1786D01*
X1191D01*
X1183Y1770D01*
Y1711D02*
X1175Y1727D01*
X1191D01*
X1183Y1711D01*
Y1651D02*
X1175Y1667D01*
X1191D01*
X1183Y1651D01*
Y1533D02*
X1175Y1549D01*
X1191D01*
X1183Y1533D01*
X1124Y1356D02*
X1116Y1372D01*
X1132D01*
X1124Y1356D01*
Y175D02*
X1116Y191D01*
X1132D01*
X1124Y175D01*
X1065Y1711D02*
X1057Y1727D01*
X1073D01*
X1065Y1711D01*
Y1651D02*
X1057Y1667D01*
X1073D01*
X1065Y1651D01*
Y766D02*
X1057Y782D01*
X1073D01*
X1065Y766D01*
Y707D02*
X1057Y723D01*
X1073D01*
X1065Y707D01*
Y116D02*
X1057Y132D01*
X1073D01*
X1065Y116D01*
X1005Y1711D02*
X997Y1727D01*
X1013D01*
X1005Y1711D01*
Y884D02*
X997Y900D01*
X1013D01*
X1005Y884D01*
Y648D02*
X997Y664D01*
X1013D01*
X1005Y648D01*
Y588D02*
X997Y604D01*
X1013D01*
X1005Y588D01*
X946Y943D02*
X938Y959D01*
X954D01*
X946Y943D01*
Y825D02*
X938Y841D01*
X954D01*
X946Y825D01*
Y648D02*
X938Y664D01*
X954D01*
X946Y648D01*
Y352D02*
X938Y368D01*
X954D01*
X946Y352D01*
X887Y1711D02*
X879Y1727D01*
X895D01*
X887Y1711D01*
X828D02*
X820Y1727D01*
X836D01*
X828Y1711D01*
Y1651D02*
X820Y1667D01*
X836D01*
X828Y1651D01*
X769Y1770D02*
X761Y1786D01*
X777D01*
X769Y1770D01*
Y1711D02*
X761Y1727D01*
X777D01*
X769Y1711D01*
Y1533D02*
X761Y1549D01*
X777D01*
X769Y1533D01*
Y943D02*
X761Y959D01*
X777D01*
X769Y943D01*
X710Y1651D02*
X702Y1667D01*
X718D01*
X710Y1651D01*
Y1533D02*
X702Y1549D01*
X718D01*
X710Y1533D01*
Y116D02*
X702Y132D01*
X718D01*
X710Y116D01*
X651Y1829D02*
X643Y1845D01*
X659D01*
X651Y1829D01*
Y1533D02*
X643Y1549D01*
X659D01*
X651Y1533D01*
Y175D02*
X643Y191D01*
X659D01*
X651Y175D01*
Y116D02*
X643Y132D01*
X659D01*
X651Y116D01*
X592Y1533D02*
X584Y1549D01*
X600D01*
X592Y1533D01*
Y1297D02*
X584Y1313D01*
X600D01*
X592Y1297D01*
X533Y1415D02*
X525Y1431D01*
X541D01*
X533Y1415D01*
Y1356D02*
X525Y1372D01*
X541D01*
X533Y1356D01*
Y1297D02*
X525Y1313D01*
X541D01*
X533Y1297D01*
Y1238D02*
X525Y1254D01*
X541D01*
X533Y1238D01*
X474Y1651D02*
X466Y1667D01*
X482D01*
X474Y1651D01*
Y1356D02*
X466Y1372D01*
X482D01*
X474Y1356D01*
Y1297D02*
X466Y1313D01*
X482D01*
X474Y1297D01*
Y1238D02*
X466Y1254D01*
X482D01*
X474Y1238D01*
Y293D02*
X466Y309D01*
X482D01*
X474Y293D01*
Y175D02*
X466Y191D01*
X482D01*
X474Y175D01*
X415Y1651D02*
X407Y1667D01*
X423D01*
X415Y1651D01*
Y1533D02*
X407Y1549D01*
X423D01*
X415Y1533D01*
Y1415D02*
X407Y1431D01*
X423D01*
X415Y1415D01*
Y1356D02*
X407Y1372D01*
X423D01*
X415Y1356D01*
Y1297D02*
X407Y1313D01*
X423D01*
X415Y1297D01*
Y1238D02*
X407Y1254D01*
X423D01*
X415Y1238D01*
Y529D02*
X407Y545D01*
X423D01*
X415Y529D01*
Y293D02*
X407Y309D01*
X423D01*
X415Y293D01*
Y175D02*
X407Y191D01*
X423D01*
X415Y175D01*
X356Y1829D02*
X348Y1845D01*
X364D01*
X356Y1829D01*
Y1533D02*
X348Y1549D01*
X364D01*
X356Y1533D01*
Y1474D02*
X348Y1490D01*
X364D01*
X356Y1474D01*
Y1415D02*
X348Y1431D01*
X364D01*
X356Y1415D01*
Y1356D02*
X348Y1372D01*
X364D01*
X356Y1356D01*
Y1297D02*
X348Y1313D01*
X364D01*
X356Y1297D01*
Y1238D02*
X348Y1254D01*
X364D01*
X356Y1238D01*
Y1179D02*
X348Y1195D01*
X364D01*
X356Y1179D01*
Y529D02*
X348Y545D01*
X364D01*
X356Y529D01*
Y470D02*
X348Y486D01*
X364D01*
X356Y470D01*
Y293D02*
X348Y309D01*
X364D01*
X356Y293D01*
X297Y1533D02*
X289Y1549D01*
X305D01*
X297Y1533D01*
Y1415D02*
X289Y1431D01*
X305D01*
X297Y1415D01*
Y1297D02*
X289Y1313D01*
X305D01*
X297Y1297D01*
Y1238D02*
X289Y1254D01*
X305D01*
X297Y1238D01*
Y529D02*
X289Y545D01*
X305D01*
X297Y529D01*
Y411D02*
X289Y427D01*
X305D01*
X297Y411D01*
X238Y1533D02*
X230Y1549D01*
X246D01*
X238Y1533D01*
Y470D02*
X230Y486D01*
X246D01*
X238Y470D01*
Y411D02*
X230Y427D01*
X246D01*
X238Y411D01*
Y175D02*
X230Y191D01*
X246D01*
X238Y175D01*
X179Y1711D02*
X171Y1727D01*
X187D01*
X179Y1711D01*
Y1651D02*
X171Y1667D01*
X187D01*
X179Y1651D01*
Y1592D02*
X171Y1608D01*
X187D01*
X179Y1592D01*
Y1415D02*
X171Y1431D01*
X187D01*
X179Y1415D01*
Y470D02*
X171Y486D01*
X187D01*
X179Y470D01*
Y411D02*
X171Y427D01*
X187D01*
X179Y411D01*
Y293D02*
X171Y309D01*
X187D01*
X179Y293D01*
X120Y1888D02*
X112Y1904D01*
X128D01*
X120Y1888D01*
Y1829D02*
X112Y1845D01*
X128D01*
X120Y1829D01*
Y1770D02*
X112Y1786D01*
X128D01*
X120Y1770D01*
Y1592D02*
X112Y1608D01*
X128D01*
X120Y1592D01*
Y1533D02*
X112Y1549D01*
X128D01*
X120Y1533D01*
Y1474D02*
X112Y1490D01*
X128D01*
X120Y1474D01*
Y470D02*
X112Y486D01*
X128D01*
X120Y470D01*
Y352D02*
X112Y368D01*
X128D01*
X120Y352D01*
Y116D02*
X112Y132D01*
X128D01*
X120Y116D01*
Y57D02*
X112Y73D01*
X128D01*
X120Y57D01*
X61Y1829D02*
X53Y1845D01*
X69D01*
X61Y1829D01*
Y1592D02*
X53Y1608D01*
X69D01*
X61Y1592D01*
Y1533D02*
X53Y1549D01*
X69D01*
X61Y1533D01*
Y352D02*
X53Y368D01*
X69D01*
X61Y352D01*
Y116D02*
X53Y132D01*
X69D01*
X61Y116D01*
X1097Y297D02*
X1089Y313D01*
X1105D01*
X1097Y297D01*
X1170Y465D02*
X1162Y481D01*
X1178D01*
X1170Y465D01*
X730Y818D02*
X722Y834D01*
X738D01*
X730Y818D01*
X1292Y1246D02*
X1284Y1262D01*
X1300D01*
X1292Y1246D01*
X1141Y1328D02*
X1133Y1344D01*
X1149D01*
X1141Y1328D01*
X1018Y1290D02*
X1010Y1306D01*
X1026D01*
X1018Y1290D01*
X1051Y1262D02*
X1043Y1278D01*
X1059D01*
X1051Y1262D01*
X1032Y1312D02*
X1024Y1328D01*
X1040D01*
X1032Y1312D01*
X115Y586D02*
X107Y602D01*
X123D01*
X115Y586D01*
X277Y580D02*
X269Y596D01*
X285D01*
X277Y580D01*
X554Y509D02*
X546Y525D01*
X562D01*
X554Y509D01*
X875Y221D02*
X867Y237D01*
X883D01*
X875Y221D01*
X1152Y1177D02*
X1144Y1193D01*
X1160D01*
X1152Y1177D01*
X1224Y1036D02*
X1216Y1052D01*
X1232D01*
X1224Y1036D01*
X983Y424D02*
X975Y440D01*
X991D01*
X983Y424D01*
X1295Y1008D02*
X1287Y1024D01*
X1303D01*
X1295Y1008D01*
X1400Y269D02*
X1392Y285D01*
X1408D01*
X1400Y269D01*
X1356Y386D02*
X1348Y402D01*
X1364D01*
X1356Y386D01*
X1078Y1206D02*
X1070Y1222D01*
X1086D01*
X1078Y1206D01*
X1051Y1196D02*
X1043Y1212D01*
X1059D01*
X1051Y1196D01*
X85Y425D02*
X77Y441D01*
X93D01*
X85Y425D01*
X821Y1248D02*
X813Y1264D01*
X829D01*
X821Y1248D01*
X1204Y1512D02*
X1196Y1528D01*
X1212D01*
X1204Y1512D01*
X1580Y320D02*
X1572Y336D01*
X1588D01*
X1580Y320D01*
X1070Y902D02*
X1062Y918D01*
X1078D01*
X1070Y902D01*
X896Y851D02*
X888Y867D01*
X904D01*
X896Y851D01*
X909Y1070D02*
X901Y1086D01*
X917D01*
X909Y1070D01*
X1053Y1330D02*
X1045Y1346D01*
X1061D01*
X1053Y1330D01*
X1073Y1353D02*
X1065Y1369D01*
X1081D01*
X1073Y1353D01*
X1411Y1314D02*
X1403Y1330D01*
X1419D01*
X1411Y1314D01*
X1241Y1419D02*
X1233Y1435D01*
X1249D01*
X1241Y1419D01*
X1320Y1295D02*
X1312Y1311D01*
X1328D01*
X1320Y1295D01*
X1378Y1289D02*
X1370Y1305D01*
X1386D01*
X1378Y1289D01*
X1241Y989D02*
X1233Y1005D01*
X1249D01*
X1241Y989D01*
X1282Y1440D02*
X1274Y1456D01*
X1290D01*
X1282Y1440D01*
X892D02*
X884Y1456D01*
X900D01*
X892Y1440D01*
X80Y1085D02*
X72Y1101D01*
X88D01*
X80Y1085D01*
X568Y617D02*
X560Y633D01*
X576D01*
X568Y617D01*
X1746Y1193D02*
X1738Y1209D01*
X1754D01*
X1746Y1193D01*
X1049Y398D02*
X1041Y414D01*
X1057D01*
X1049Y398D01*
X951Y396D02*
X943Y412D01*
X959D01*
X951Y396D01*
X897Y306D02*
X889Y322D01*
X905D01*
X897Y306D01*
X601Y739D02*
X593Y755D01*
X609D01*
X601Y739D01*
X344Y747D02*
X336Y763D01*
X352D01*
X344Y747D01*
X626Y658D02*
X618Y674D01*
X634D01*
X626Y658D01*
X290D02*
X282Y674D01*
X298D01*
X290Y658D01*
X1072Y981D02*
X1064Y997D01*
X1080D01*
X1072Y981D01*
X1053Y1005D02*
X1045Y1021D01*
X1061D01*
X1053Y1005D01*
X1033Y1023D02*
X1025Y1039D01*
X1041D01*
X1033Y1023D01*
X1014Y1045D02*
X1006Y1061D01*
X1022D01*
X1014Y1045D01*
X869Y1081D02*
X861Y1097D01*
X877D01*
X869Y1081D01*
X846Y1114D02*
X838Y1130D01*
X854D01*
X846Y1114D01*
X823Y1140D02*
X815Y1156D01*
X831D01*
X823Y1140D01*
X819Y1181D02*
X811Y1197D01*
X827D01*
X819Y1181D01*
X992Y1511D02*
X984Y1527D01*
X1000D01*
X992Y1511D01*
X855Y1569D02*
X847Y1585D01*
X863D01*
X855Y1569D01*
X1150Y1504D02*
X1142Y1520D01*
X1158D01*
X1150Y1504D01*
X1040Y1584D02*
X1032Y1600D01*
X1048D01*
X1040Y1584D01*
X1144Y1550D02*
X1136Y1566D01*
X1152D01*
X1144Y1550D01*
X1147Y1615D02*
X1139Y1631D01*
X1155D01*
X1147Y1615D01*
X173Y1834D02*
X177Y1838D01*
X181D01*
X177Y1842D01*
X181Y1846D01*
X177D01*
X173Y1850D01*
X169Y1846D01*
X165D01*
X169Y1842D01*
X165Y1838D01*
X169D01*
X173Y1834D01*
X1847Y1789D02*
X1851Y1793D01*
X1855D01*
X1851Y1797D01*
X1855Y1801D01*
X1851D01*
X1847Y1805D01*
X1843Y1801D01*
X1839D01*
X1843Y1797D01*
X1839Y1793D01*
X1843D01*
X1847Y1789D01*
X147Y171D02*
X151Y175D01*
X155D01*
X151Y179D01*
X155Y183D01*
X151D01*
X147Y187D01*
X143Y183D01*
X139D01*
X143Y179D01*
X139Y175D01*
X143D01*
X147Y171D01*
X1764Y159D02*
X1768Y163D01*
X1772D01*
X1768Y167D01*
X1772Y171D01*
X1768D01*
X1764Y175D01*
X1760Y171D01*
X1756D01*
X1760Y167D01*
X1756Y163D01*
X1760D01*
X1764Y159D01*
D93*
X490Y1486D02*
X485Y1494D01*
X476Y1491D01*
Y1482D01*
X485Y1479D01*
X490Y1486D01*
Y482D02*
X485Y490D01*
X476Y487D01*
Y478D01*
X485Y475D01*
X490Y482D01*
X1494Y1486D02*
X1489Y1494D01*
X1480Y1491D01*
Y1482D01*
X1489Y1479D01*
X1494Y1486D01*
Y482D02*
X1489Y490D01*
X1480Y487D01*
Y478D01*
X1489Y475D01*
X1494Y482D01*
X490Y1486D02*
X485Y1494D01*
X476Y1491D01*
Y1482D01*
X485Y1479D01*
X490Y1486D01*
X1494Y482D02*
X1489Y490D01*
X1480Y487D01*
Y478D01*
X1489Y475D01*
X1494Y482D01*
X490D02*
X485Y490D01*
X476Y487D01*
Y478D01*
X485Y475D01*
X490Y482D01*
X1494Y1486D02*
X1489Y1494D01*
X1480Y1491D01*
Y1482D01*
X1489Y1479D01*
X1494Y1486D01*
M02*
